<svg id="leaf5" xmlns="http://www.w3.org/2000/svg" viewBox="0 0 425.12 205.23"><defs><style>.cls-1{fill:#666;}</style></defs><path class="cls-1" d="M1705.15,0H1347.56a228.21,228.21,0,0,0,2,87.75c13.88,61.92,50.28,101.28,67.25,117.48a145.94,145.94,0,0,0,53.47-38.86C1510,120.17,1506.16,63.81,1505,51.14c4.56,15.4,21.24,64.74,71.57,101,48.48,34.95,98.39,36.28,114.76,36a8.51,8.51,0,0,1,16,5.65l62,6.92a465.63,465.63,0,0,0-14.26-78.53C1746.44,90.39,1733.44,42.67,1705.15,0Z" transform="translate(-1344.25)"/></svg>