<svg id="leaf2" xmlns="http://www.w3.org/2000/svg" viewBox="0 0 608.08 649.05"><defs><style>.cls-1{fill:#666;}</style></defs><path class="cls-1" d="M415,445.82c37.35-38.52,99.59-34.85,138.71-16.13,45.85,21.94,79.71,74,80.65,116.13.18,8.24-.76,22.21,6.45,38.71,8.82,20.19,24.87,32.81,37.1,40.33a167,167,0,0,0-48.39-6.45,170.12,170.12,0,0,0-37.1,4.83c-6.87,1.55-65,14.3-101.61,8.07-47.71-8.1-101.24-55.49-103.23-112.91C387.43,513.32,386.7,475,415,445.82Z" transform="translate(-69.86)"/><path class="cls-1" d="M311.8,371.62c26.06,4.22,48.34,22.51,59.68,43.55,29.42,54.6-8.13,140-54.84,164.52-8.05,4.24-21,9.12-35.49,22.59-17.06,15.89-25.9,34.18-30.64,46.77A143,143,0,0,0,236,592.6c-12.33-24.64-23.88-28.52-33.87-46.78-24.07-44,.43-99.06,1.61-101.61C220.77,407.25,263.55,363.83,311.8,371.62Z" transform="translate(-69.86)"/><path class="cls-1" d="M255.35,237.75c18.57,28.29.36,74-24.2,98.39-21.56,21.43-48.24,26.65-101.61,37.1a510,510,0,0,1-59.68,8.06c3.4-10.71,8.5-26.94,14.51-46.77,18.26-60.24,17.07-61.94,22.59-71,19.28-31.58,61.16-55.65,101.61-50C217.49,214.8,242.58,218.3,255.35,237.75Z" transform="translate(-69.86)"/><path class="cls-1" d="M558.58,224.85a203,203,0,0,0-38.71,48.39c-23,40.18-15,59.4-33.87,85.48-18.22,25.15-57.52,51.3-100,41.94-41.27-9.1-72.36-48.82-72.58-85.49-.37-63.26,91.14-113.74,141.94-100,13.28,3.59,28.49,12.85,56.45,14.52A147.91,147.91,0,0,0,558.58,224.85Z" transform="translate(-69.86)"/><path class="cls-1" d="M437.61,91c-4,11.48-9.83,27.68-17.74,46.78-15.2,36.7-22.8,55-33.88,69.35-17.3,22.37-59.68,60.74-95.16,46.78-25.72-10.12-40.1-44.72-37.1-72.58,6.5-60.41,94.15-84.6,103.23-87.1C390.54,84.93,419.91,87.77,437.61,91Z" transform="translate(-69.86)"/><path class="cls-1" d="M202.12,52.26c40.49,14.25,59,47.44,51.61,67.75-6.49,17.93-33.36,26.51-53.22,24.19-23-2.69-45.53-21.06-53.23-40.32-2.15-5.39-5.19-15.94-14.52-27.42a78,78,0,0,0-11.29-11.3A101.78,101.78,0,0,1,169.86,49,99.81,99.81,0,0,1,202.12,52.26Z" transform="translate(-69.86)"/><path class="cls-1" d="M280,0c-14.59,53.46-41.29,187.38,39,331.38C357.27,399.9,407.87,449.46,447.8,482c-41.43-27.37-124.93-90.21-173-194.25C213.72,155.33,248.66,39.79,263.14,0Z" transform="translate(-69.86)"/></svg>