<svg id="time" xmlns="http://www.w3.org/2000/svg" viewBox="0 0 111.51 198.31"><defs><style>.cls-1{fill:#888;}</style></defs><path class="cls-1" d="M953.71,547l-22.59,24.14a99.36,99.36,0,0,0-27,66c0,.49,0,1,0,1.48h0l110.72.44h0c0-.49,0-1,0-1.47a99.41,99.41,0,0,0-26.5-66.23l-22.4-24.31a10.46,10.46,0,0,1-2.77-7.13h0a10.49,10.49,0,0,1,2.82-7.11l22.6-24.13a99.39,99.39,0,0,0,27-66c0-.49,0-1,0-1.48h0l-110.72-.44h0c0,.49,0,1,0,1.48a99.39,99.39,0,0,0,26.5,66.22l22.4,24.31a10.46,10.46,0,0,1,2.77,7.13h0A10.41,10.41,0,0,1,953.71,547Z" transform="translate(-904.07 -440.78)"/></svg>