<svg id="weed1" xmlns="http://www.w3.org/2000/svg" viewBox="0 0 230.09 195.2"><defs><style>.cls-1{fill:#666;}</style></defs><path class="cls-1" d="M516.19,1018.61a253.85,253.85,0,0,0-1.92,61.39h15.46q2.38-3.69,4.91-7.42c.52,2.51,1,5,1.41,7.42h11.52a197.29,197.29,0,0,0-3.83-20.24,352.62,352.62,0,0,1,31.91-37.38c25.44-25.81,49.3-41.56,66.56-51.06-16.38,7-51.24,24.52-87.48,65q-6.94,7.76-13.08,15.6-1.73-6-3.94-12.16a226.48,226.48,0,0,1,35.72-66.49c24.06-31.11,52.38-51.73,74.16-64.72-22,10.28-67.15,34.85-98.94,82.9a199.59,199.59,0,0,0-17.44,32.49c-1.22-2.62-2.51-5.26-3.88-7.9a285.54,285.54,0,0,1,6.48-33.72,299.43,299.43,0,0,1,45.11-97.5C563,903.16,532.4,943.25,519.33,1002q-1.4-2.25-2.89-4.5c-31.78-48.06-76.89-72.62-98.94-82.9,21.78,13,50.1,33.61,74.17,64.72A228,228,0,0,1,516.19,1018.61Zm15.6,41.87c.3,1.14.59,2.28.88,3.41-.8,1.12-1.58,2.23-2.36,3.34C530.77,1065,531.26,1062.76,531.79,1060.48Z" transform="translate(-417.5 -884.8)"/></svg>