<svg id="leaf3" xmlns="http://www.w3.org/2000/svg" viewBox="0 0 366.11 338.72"><defs><style>.cls-1{fill:#f28972;}</style></defs><path class="cls-1" d="M11.51,1030.79c-.77,3.42,1.68,6.48,4.44,6.66a5.33,5.33,0,0,0,5.27-4.72c8.7.22,14.1-2.16,17.47-4.45,5.91-4,7.12-8.85,13-11.1,5-1.89,10.06-.73,13.59.55a69.74,69.74,0,0,1,6.11,27.18c.2,14.5-4.51,26.75-7.17,35.09h76.82a13.51,13.51,0,0,0,.26-2.4c.11-6.32-4.25-8.64-5.28-16.91-.39-3.16-.71-5.78.83-7.77,3.73-4.79,14.9-1.48,16.09-1.12,2.66.82,11.2,3.84,23.3,20.52,2,2.74,3.68,5.3,5.17,7.68H269c-.11-.27-.2-.53-.33-.79,10.64,1.58,19.07-5,19.68-11.94s-6.61-12-6.94-12.2q21.67-3.79,21.91-8.61c.08-1.75-2-3.59-6.11-5.54,6.54-1.68,10.34-7.88,9.15-13.32-.89-4.09-4.53-7.4-9.16-8.32a24.23,24.23,0,0,0,11.65-4.16c5.19-3.62,10.44-10.52,8.59-14.15-1-1.91-3.43-2-8-3.05a68,68,0,0,1-16.09-6.09c.11-8.53-1.34-10.89-2.78-11.37-2.2-.73-4.65,3.11-8.32,1.94-1.56-.49-2.11-1.36-3.88-2.21a12.71,12.71,0,0,0-7.77-.83c-1.2-2-8.1-.52-9.15-1.11-5.15-2.86-7.66-3-14.42,3.62.77-1.36,1.52-3.1.83-4.16-1.47-2.25-8.37-.1-12.48,1.11-19.09,5.6-31.47,9.23-38.55,5.29-3.39-1.89-7.45-6.55-8.33-19.69a102.7,102.7,0,0,1,16.36,1.1c23.64,3.53,39,14.43,42.72,10,.6-.72,1.11-2.1.27-5,7.13,6.74,15.76,6.69,18.86,3,2.82-3.31.81-9.25.55-10q12.78,3.86,14.15,1.38a2.42,2.42,0,0,0-.28-2.22,10.23,10.23,0,0,0,8-18.58c14.88-1.27,24.25-10.49,23.85-18.32-.28-5.34-5.06-9.26-7.22-10.81,12.27-.57,20.24-9.87,19.41-17.76S315,885.2,314.58,885c10.62-.63,17.77-8.25,17.47-15.26-.27-6.25-6.38-10.28-7.22-10.82,11-3.46,16.34-15.19,12.75-24.13-2.9-7.23-11.33-11.92-20.25-10.53,14.88-4.9,23.73-13.39,22.73-20-.21-1.36-1-3.49-3.89-5.83,8.62-6.52,12.11-13.92,10-17.47-.34-.58-1.7-2.5-6.66-2.77a76.38,76.38,0,0,0,7.77-6.39c11.83-11.11,21.3-27.18,18.29-30.24-.69-.69-2.53-1.24-18.86,7.78-23.4,12.92-39.56,25.07-40.76,23.59-.14-.17,0-.38.18-1,1-3.84-1.79-10.54-7.67-12a10.78,10.78,0,0,0-11.93,5.55,9.46,9.46,0,0,0-4.71-5.26c-4.13-1.8-9.85.16-13.31,5.27-1.95-5.83-7.12-9.72-12.49-9.7-6.86,0-13.23,6.46-13,14.71a10.55,10.55,0,1,0-21.08.84c-2-6.57-6.67-11.41-11.37-11.64-6.42-.33-14.41,7.83-13.31,19.69-.33-2.06-2.45-14.69-6.38-15-3.21-.23-7,7.82-9.7,19.7-1.94-6.34-6.63-9.24-9.16-8.32-2,.74-3.25,4.16-3,8-2-2.9-3.71-4.19-5-3.89q-3.42.81-3.32,16.65c-6.19-5.42-9.21-4.48-10-4.16-4.34,1.79-5.4,11.91-2.2,25.52a6,6,0,0,0-4.44.56c-4.17,2.62-3.91,12.49.84,24.68-4.36-.93-6,.26-6.65.83-3,2.86-1.27,11.16,5.28,20.53-2.49.26-5,.9-5.55,2.5-.44,1.29.6,2.71.84,3,3.42,5,13.27,41.13.57,51.3-6.66,5.35-18.26,2.51-24.4-.54-2.24-1.11-7.41-3.67-10.41-9.28-2.52-4.73-2.24-9.24-1.67-16.92.94-12.52,4.23-18.89.82-22.19a6.9,6.9,0,0,0-4.71-1.66c5.72-12.77,6.22-23,2.2-25.52-3.43-2.17-9.6,1.66-11.37,2.78,2.32-8.17.12-14.62-3.33-15.81-.42-.14-2.6-.81-6.1,1.67,1.92-6.77-2.12-13.21-7.22-14.42-5.51-1.3-12.53,3.44-13,11.1C58.57,817.45,49.88,810,44.55,811c-4.76.86-9.28,8.87-8.87,19.14-5.49-5.6-13.52-7.44-20-4.71-8.3,3.52-12.91,14.17-9.14,24.14A16.07,16.07,0,0,0,0,847v99.37c4.54,1.38,10.79,1.32,17.71-.85A38.78,38.78,0,0,1,38,956c3.09,3.13,8.52,8.63,8.88,16.92a21.43,21.43,0,0,1-1.93,9.71c-6.9-.81-10.9-3.3-13.32-5.54-4.65-4.33-5.83-10-11.38-11.65a11,11,0,0,0-5-.27c-.74-5.52-5.65-8.61-9.29-7.63-2.61.71-4.66,3.53-5,6.94-.3-.54-.61-1-.94-1.53v62.09l.41-.1c-.15.19-.28.37-.41.55v5.41C2.07,1032.05,6.28,1032.12,11.51,1030.79Z" transform="translate(0 -741.28)"/><path class="cls-1" d="M35.33,1080a266.25,266.25,0,0,1,42.91-54.45c40.86-40.28,90.2-66,128.38-81.89C167.75,955.87,88.5,985.6,35.08,1048.24A228.4,228.4,0,0,0,12.28,1080Z" transform="translate(0 -741.28)"/></svg>