<svg id="leaf4" xmlns="http://www.w3.org/2000/svg" viewBox="0 0 224.87 218.33"><defs><style>.cls-1{fill:#f28972;}</style></defs><path class="cls-1" d="M878.58,986.46c34.58,39.81,88.51,42.45,102.69,42.71,2.94,1.23,4.42,3.79,3.89,5.67s-2.76,2.71-4.42,2.85c-3,.25-4.63-2-8.21-4-2.53-1.39-5-1.84-9.94-2.74-35.36-6.44-68.3,5.26-68.3,5.26a130.59,130.59,0,0,0-25.64,12.3c2.79,3.13,19.2,21,42.2,31.46h62.49c1.26-.65,2.53-1.34,3.82-2.12,5-.08,11.69-.17,20.4-.27a71.21,71.21,0,0,1,12.44.65,61.8,61.8,0,0,1,8,1.74h4.89s-.06-.09-.08-.14a3.59,3.59,0,0,1,.5-3,28.2,28.2,0,0,0,6.09,3.1h18.8a24.42,24.42,0,0,0,5.17-2.74c10.63-7.39,10.93-20.22,10.94-21.48-2.68-.76-15.25-4-27.59,3.1a34.84,34.84,0,0,0-12.71,12.76,10.06,10.06,0,0,0-1.88-7.58,9.44,9.44,0,0,0-3.9-2.89,18.49,18.49,0,0,0-3.25,15.68,44.21,44.21,0,0,0-6.6-1.28,45.82,45.82,0,0,0-7.85-.24,44.32,44.32,0,0,0,.67-18,44.84,44.84,0,0,0-10.12-21.51l2.42-3.72a42,42,0,0,0,22.41-2.17c14.88-6,21.45-19.74,26.6-31,13.13-28.57,9.91-55.75,8.69-63.81-4.87-32.36-22.14-53.93-30.28-62.89a75.22,75.22,0,0,0-28.92,18c-22.1,22.31-22.2,51.44-22.06,58A98.51,98.51,0,0,0,879.14,871a4.39,4.39,0,0,1-8-3.49l-31.66-5.83a240.67,240.67,0,0,0,4.46,40.91C848.16,924.1,855.13,959.47,878.58,986.46Zm113.18,58.81a36.35,36.35,0,0,1,5.37,15.06c.47,4.12,1.06,9.2-2,11.86-1.88,1.64-4.64,1.93-6.91,2.16A20.23,20.23,0,0,1,982,1074,26.93,26.93,0,0,0,992.16,1059,26.36,26.36,0,0,0,991.76,1045.27Zm-5.08-34c1.94,1.71,5.94,5.79,6.16,11.43.1,2.53-.5,7.11-2.53,7.64a2.6,2.6,0,0,1-1.82-.39c-2-1.08-2.28-3.78-2.37-4.61-.29-2.75.81-3.79,1.29-6.6A15.22,15.22,0,0,0,986.68,1011.25Z" transform="translate(-839.45 -861.67)"/></svg>