<svg id="leaf1" xmlns="http://www.w3.org/2000/svg" viewBox="0 0 608.08 649.05"><defs><style>.cls-1{fill:#7ebfb3;}</style></defs><path class="cls-1" d="M1495.77,634.18c-37.35,38.52-99.6,34.85-138.72,16.13-45.84-21.94-79.7-74-80.64-116.13-.19-8.24.75-22.21-6.45-38.71-8.82-20.19-24.87-32.81-37.1-40.33a167,167,0,0,0,48.39,6.45,170.1,170.1,0,0,0,37.09-4.83c6.88-1.55,65-14.3,101.62-8.07,47.71,8.1,101.23,55.49,103.23,112.91C1523.36,566.68,1524.1,605,1495.77,634.18Z" transform="translate(-1232.86 -430.95)"/><path class="cls-1" d="M1599,708.38c-26.07-4.22-48.34-22.51-59.68-43.55-29.43-54.6,8.12-140,54.84-164.52,8-4.24,21-9.12,35.48-22.59,17.06-15.89,25.9-34.18,30.65-46.77a143,143,0,0,0,14.51,56.45c12.33,24.64,23.88,28.52,33.88,46.78,24.06,44-.44,99.06-1.62,101.61C1690,672.75,1647.24,716.17,1599,708.38Z" transform="translate(-1232.86 -430.95)"/><path class="cls-1" d="M1655.45,842.25c-18.58-28.29-.37-74,24.19-98.39,21.57-21.43,48.25-26.65,101.62-37.1a509.75,509.75,0,0,1,59.68-8.06c-3.41,10.71-8.51,26.94-14.52,46.77-18.25,60.24-17.06,61.94-22.58,71-19.28,31.58-61.16,55.65-101.62,50C1693.31,865.2,1668.22,861.7,1655.45,842.25Z" transform="translate(-1232.86 -430.95)"/><path class="cls-1" d="M1352.22,855.15a203.48,203.48,0,0,0,38.71-48.39c23-40.18,15-59.4,33.87-85.48,18.21-25.15,57.52-51.3,100-41.94,41.28,9.1,72.37,48.82,72.58,85.49.38,63.26-91.14,113.74-141.94,100C1442.16,861.24,1427,852,1399,850.31A147.81,147.81,0,0,0,1352.22,855.15Z" transform="translate(-1232.86 -430.95)"/><path class="cls-1" d="M1473.19,989c4-11.48,9.83-27.68,17.74-46.78,15.2-36.7,22.8-55,33.87-69.35,17.3-22.37,59.69-60.74,95.16-46.78,25.73,10.12,40.1,44.72,37.1,72.58-6.5,60.41-94.15,84.6-103.23,87.1C1520.26,995.07,1490.89,992.23,1473.19,989Z" transform="translate(-1232.86 -430.95)"/><path class="cls-1" d="M1708.68,1027.74c-40.49-14.25-59-47.44-51.62-67.75,6.49-17.93,33.37-26.51,53.23-24.19,23,2.69,45.52,21.06,53.23,40.32,2.15,5.39,5.18,15.94,14.51,27.42a78,78,0,0,0,11.29,11.3,101.73,101.73,0,0,1-48.38,16.12A99.78,99.78,0,0,1,1708.68,1027.74Z" transform="translate(-1232.86 -430.95)"/><path class="cls-1" d="M1630.75,1080c14.59-53.46,41.3-187.38-39-331.37C1553.52,680.1,1502.92,630.54,1463,598c41.42,27.37,124.93,90.21,173,194.25,61.13,132.42,26.19,248,11.71,287.75Z" transform="translate(-1232.86 -430.95)"/></svg>